<svg xmlns="http://www.w3.org/2000/svg" width="390" height="844"><path fill="#4deefc" d="M238.784 303.344v-20.459h-3.222v40.435h3.222v-19.976Zm22.755 5.12-2.976-1.234-7.77 18.752 2.976 1.233 7.77-18.751Zm30.07 30.027-18.754 7.768 1.233 2.977 18.754-7.768-1.233-2.977Zm-18.846 41.137 1.234-2.977 18.751 7.77-1.233 2.977-18.752-7.77Zm-22.034 20.525 7.768 18.754 2.977-1.233-7.769-18.754-2.976 1.233Zm-37.945 17.224 2.977 1.233 7.77-18.751-2.976-1.234-7.77 18.752Zm-18.946-13.347-14.5 14.176 2.417 2.417 28.675-28.837-2.416-2.255-14.176 14.499Zm-12.656-19.918 1.234 2.976 18.751-7.77-1.233-2.976-18.752 7.77Zm20.262-38.005-1.233 2.977-18.752-7.77 1.233-2.977 18.752 7.77Zm21.989-20.16-7.768-18.753-2.977 1.233 7.768 18.754 2.977-1.233Zm71.412-18.253-2.416-2.417-14.177 14.338-14.337 14.338 2.255 2.255 28.675-28.514Zm1.772 53.645h-19.976v3.222h40.436v-3.222h-20.46Zm-30.447 28.192-2.255 2.255 14.337 14.5 14.177 14.337 2.416-2.417-14.498-14.176-14.177-14.499Zm-30.608 33.025v20.298h3.222V402.42h-3.222v20.137Zm-37.858-61.217h-40.596v3.222h40.596v-3.222Zm10.31-25.131 2.416-2.255-14.337-14.338-14.338-14.338-2.416 2.417 14.499 14.176 14.176 14.338Zm56.384 26.742c0-15.036-12.19-27.225-27.226-27.225s-27.225 12.189-27.225 27.225c0 15.036 12.19 27.225 27.225 27.225 15.037 0 27.226-12.189 27.226-27.225ZM72.027 170.901c2.16-2.72 3.52-6.08 3.52-9.92 0-8.72-6.96-15.76-15.68-15.76-1.12 0-2.16.08-3.2.32-3.36-7.759-11.2-13.28-20.32-13.28-11.68 0-21.2 9.12-22.08 20.48-1.36-.48-2.8-.8-4.4-.8-7.6 0-13.68 6.08-13.68 13.68 0 1.76.401 3.6.96 5.2l74.88.08ZM372.873 60.896a40.322 40.322 0 0 0-20.77 5.737c-8.902-14.045-24.529-23.54-42.332-23.54-21.957 0-40.551 14.045-47.277 34.024-3.758-1.385-7.714-2.176-11.868-2.176-18.792 0-33.826 15.033-33.826 33.825 0 18.794 15.034 33.827 33.826 33.827h121.852c22.748 0 40.947-18.2 40.947-40.947.197-22.353-18.2-40.75-40.552-40.75Z"/><path fill="#4deefc" d="m185.331 396.15-35.937-68.281-12.13-5.39-24.707-45.372H93.69l-48.066 40.43-16.621 24.707-15.274-4.043-47.168 41.328h-69.179l-25.157 34.141-72.773 26.953-32.344 36.836h445.626L185.33 396.15Zm-55.254-38.633-23.36-9.882L60 353.025 52.81 339.55 42.03 332.36l9.883-11.68 41.328-32.344h15.723l24.707 43.575 11.23 4.941 6.739 13.926-21.563 6.738Z"/><path fill="#4deefc" d="m127.096 445.676 14.08-32.185 54.313-24.138 66.784-12.07 47.07-32.185 24.542-52.3 22.53-15.69 20.115 59.139 43.852 67.991 42.646 14.886 39.025 58.335H102.957l24.139-31.783Zm205.984-96.555 10.058-10.058 20.518 10.058 16.897 8.851-10.862-16.093L354 287.567l-14.081 10.058-16.093 33.794 9.253 17.702Z"/><path fill="#34aab4" d="M163.367 451.733s7.715 5.51 17.034 6.913c-18.938-11.623-22.545-41.883-22.545-41.883s7.915 5.912 13.226 6.513c-15.03-10.22-15.631-17.636-15.631-25.451 0 7.916-.702 15.23-15.732 25.45 5.411-.5 13.227-6.512 13.227-6.512s-3.608 30.16-22.545 41.883c9.218-1.402 17.034-6.913 17.034-6.913s-7.916 30.761-31.664 45.591c9.52 0 25.752 0 39.68-6.112 14.028 6.112 30.16 6.112 39.68 6.112-23.849-14.73-31.764-45.591-31.764-45.591Z"/><path fill="#4deefc" d="M313.464 561.942c-38.996 51.792-165.736 155.376-15.233 223.012h93.836c-75.556-38.996-155.987-112.115-73.119-180.36 68.244-57.276 49.965-118.208-42.653-141.362 38.388 24.373 65.807 63.37 37.17 98.71ZM200.13 638.717c63.979-57.277 141.363-106.023 76.165-165.736-13.404-12.187-30.466-18.89-48.136-19.498-5.484-.61-13.405-.61-22.545-1.22h-26.81c140.144 109.07-391.187 100.54-391.187 333.91h455.166c-47.528-32.904-106.632-89.57-42.653-147.456Z"/><path fill="#34aab4" d="M71.193 476.19s7.716 5.51 17.035 6.913C69.29 471.48 65.682 441.22 65.682 441.22s7.916 5.912 13.227 6.513c-15.03-10.22-15.632-17.635-15.632-25.45 0 7.915-.7 15.23-15.73 25.45 5.41-.5 13.225-6.513 13.225-6.513s-3.607 30.16-22.545 41.884c9.219-1.403 17.034-6.914 17.034-6.914s-7.915 30.762-31.663 45.592c9.519 0 25.751 0 39.68-6.112 14.028 6.112 30.16 6.112 39.679 6.112-23.848-14.73-31.764-45.592-31.764-45.592ZM245.221 242.763c5.464 0 9.987 3.769 11.243 8.825 1.256-5.088 5.81-8.825 11.243-8.825 1.539 0 2.983.314 4.365.848-1.79-1.32-3.988-2.199-6.407-2.199-3.988 0-7.442 2.23-9.201 5.528-1.79-3.298-5.245-5.528-9.202-5.528a10.47 10.47 0 0 0-6.406 2.199 12.001 12.001 0 0 1 4.365-.848ZM261.33 258.873c5.465 0 9.988 3.768 11.244 8.824 1.256-5.087 5.81-8.824 11.243-8.824 1.538 0 2.983.314 4.365.848-1.79-1.32-3.989-2.199-6.407-2.199-3.988 0-7.443 2.23-9.201 5.528-1.79-3.298-5.245-5.528-9.202-5.528a10.47 10.47 0 0 0-6.407 2.199 11.998 11.998 0 0 1 4.366-.848ZM132.013 661.049c-1.806-3.353-5.288-5.932-9.543-5.932-.774 0-1.29 0-2.064.257-2.192-1.547-5.158-2.579-7.867-2.579H110.734c-6.577.774-13.54.903-28.5-5.287-3.87-2.192-8.64-3.353-13.412-2.58-6.964 0-10.317-4.77-13.8-10.316v-.258h3.483c8.511 0 15.475-6.964 15.475-15.476 0-8.51-6.964-15.475-15.475-15.475-.903 0-2.064.774-2.193 1.806-.258 1.29.774 2.579 2.064 2.579 6.061 0 11.22 4.771 11.22 11.22 0 4.384-2.58 8.253-6.449 9.93 1.29-2.064 2.193-4.643 2.193-7.351 0-6.964-5.675-12.896-12.51-12.896-1.29 0-2.192.773-2.192 2.063s.774 2.063 2.063 2.192c3.096.258 6.449 1.548 7.738 4.643 2.063 4.771-.258 9.8-3.998 11.607a8.906 8.906 0 0 0 1.29-4.643c0-4.772-3.998-9.156-9.027-9.156-.903 0-2.064.773-2.193 1.805 0 1.29.774 2.58 2.193 2.192 1.29 0 2.837.258 3.482 1.548 2.063 3.095.773 6.448-1.548 7.35-2.063-1.547-4.771-2.192-7.867-1.805-1.805.258-3.353.774-4.771 1.806-2.193-.774-3.869-4.127-1.548-7.222.774-.903 2.064-1.548 3.482-1.548 1.29 0 2.193-.903 2.193-2.192 0-.903-.903-1.806-2.193-1.806-4.771 0-9.027 3.998-9.027 9.157 0 1.547.516 3.095 1.29 4.642-3.998-1.805-6.449-6.577-3.998-11.606 1.29-2.708 4.385-4.385 7.737-4.514.903 0 2.064-.903 2.064-2.192 0-1.29-.903-2.192-2.193-2.192-6.963 0-12.509 5.932-12.509 12.896 0 2.579.774 5.158 2.193 7.221-3.482-1.805-6.448-5.674-6.448-9.93 0-6.06 4.771-11.22 11.09-11.22.903 0 2.063-.773 2.063-1.805.13-1.418-.773-2.708-2.063-2.708-8.511 0-15.475 6.964-15.475 15.475 0 8.512 6.964 15.476 15.604 15.476h1.29c-3.998 2.837-9.801 5.674-11.607 6.061-3.482.903-5.932 4.643-5.158 8.512.258 1.805 1.29 3.095 2.837 4.384 3.353 2.58 5.674 2.064 7.738 1.29 0 0 .258 0 .258-.258 0 0 .257 0 .515-.258 4.385-2.192 11.22-3.869 16.12-3.998 1.29 1.29 2.838 4.772 2.064 8.512-.258.902-.516 2.192.516 3.868.903 1.548 2.579 2.58 4.384 2.58 1.29 0 2.193-.516 3.353-1.29 0 2.58 0 5.159.903 7.738.516 1.547 1.29 3.095 2.193 4.642 0 0 0 .258.258.516 3.997 5.675 5.158 8.64 5.158 12.252v38.3c0 2.063 1.547 3.87 3.353 3.87 2.063 0 3.869-1.548 3.869-3.482v-42.557c1.29.258 2.837.258 4.384.258l-1.805 2.708a6.808 6.808 0 0 0-.903 3.353v36.368c0 2.063 1.548 3.868 3.353 3.868 2.064 0 3.869-1.548 3.869-3.482v-36.238l6.448-9.543c4.385-1.548 7.867-2.193 11.736-2.58l10.446 10.446v37.656c0 2.063 1.547 3.87 3.353 3.87 2.063 0 3.868-1.548 3.868-3.482v-38.947c0-.902-.257-2.192-.902-3.095-1.29-1.805-1.548-3.482-1.806-4.384h4.256l2.58 4.771v41.396c0 2.064 1.547 3.871 3.352 3.871 2.063 0 3.869-1.548 3.869-3.482v-42.945c0-.774-.258-1.548-.516-2.193-.903-2.063-1.547-4.385 0-7.866 2.193-3.353 2.837-7.867 1.29-12.123 0-.258-.258-.774-.516-.902 2.063.257 3.869.773 5.674 1.547 1.419-.516 2.193-1.676 1.677-2.708ZM356.722 627.973v-8.377c2.815-1.51 4.738-4.463 4.944-7.485 0-.823-.962-1.167-1.511-.686-1.51 1.51-3.227 2.747-5.562 3.776H325.41l-3.227-5.424 3.777-5.905c.48-.962-.137-2.129-1.373-1.854l-1.786.412c.412-1.168.48-2.54.48-3.845 0-7.554-6.11-13.459-13.389-13.459-2.334 0-4.532.48-6.592 1.648-.686.412-1.03 1.374-.618 2.06.413.687 1.374.962 2.06.48 1.51-.823 3.228-1.166 5.15-1.166 3.777 0 6.867 1.853 8.858 4.943-1.51-.96-3.365-1.51-5.287-1.51-.824 0-1.51.686-1.51 1.51s.686 1.511 1.51 1.511a6.227 6.227 0 0 1 6.248 6.249v.686c-.137.48-.412 1.099-.686 1.648l-1.374.275c-.48.137-1.098.412-1.648.686l-8.17 5.906c-1.374 1.648.137 4.257 2.334 3.776l4.051-.961 4.532 13.802-6.18 6.248c-1.167 1.167-1.167 3.433.138 4.532l9.27 8.171v4.875c0 1.51 1.167 2.747 2.746 2.747 1.51 0 2.747-1.168 2.747-2.747v-18.814h14.213l5.15 4.532-4.738 13.527c-.412 1.373.275 3.021 1.648 3.433.275.138.48.138.824.138a2.726 2.726 0 0 0 2.54-1.786l5.15-15.106c.413-1.167 0-2.54-.823-3.433l-1.717-1.648h2.747l2.471 2.472v16.548c0 1.167.824 2.472 2.13 2.747 1.784.274 3.226-.962 3.226-2.747v-17.51c0-.824-.274-1.647-.961-2.334l-2.61-2.54Zm-38.59 7.485 3.502-3.502v6.797l-3.502-3.295Z"/><path fill="#34aab4" d="M121.619 809.992c39.28-28.422 88.922-44.021 139.504-39.79 59.357 4.963 111.437 34.788 145.276 77.64-25.868-88.445-103.4-155.74-200.436-163.855C96.496 675.352-1.982 746.64-31.735 847.581c31.58-29.582 76.664-46.603 123.633-42.676 10.323.864 20.087 2.202 29.721 5.087Zm-30.584 5.237C8.45 808.323-64.26 869.809-71.166 952.394l298.849 24.993c7.94-82.496-54.064-155.25-136.648-162.158Zm148.003 163.107 202.33 16.922c9.108-108.906-72.287-204.592-180.678-213.657-46.97-3.927-91.148 8.488-126.986 33.04 66.621 23.762 111.507 89.886 105.334 163.695Z"/><path fill="#4deefc" d="M196.39 86.84c2.77-5.143 4.352-11.077 4.352-17.009 0-19.98-16.22-36.398-36.397-36.398-14.243 0-26.903 8.308-32.837 20.571-5.737-5.934-13.65-9.296-22.155-9.296-7.121 0-13.65 2.374-18.792 6.329-5.144-18.792-22.156-32.44-42.53-32.44-24.134 0-43.915 19.78-43.915 43.915 0 9.099 2.77 17.603 7.32 24.726l184.955-.397Z"/><path fill="#34aab4" d="M370.3 459.223s5.287 3.777 11.673 4.738c-12.977-7.965-15.45-28.702-15.45-28.702s5.425 4.051 9.064 4.463c-10.3-7.003-10.711-12.085-10.711-17.44 0 5.424-.481 10.437-10.78 17.44 3.707-.343 9.063-4.463 9.063-4.463s-2.472 20.668-15.45 28.702c6.317-.961 11.673-4.738 11.673-4.738s-5.424 21.08-21.698 31.243c6.524 0 17.647 0 27.192-4.189 9.613 4.189 20.668 4.189 27.191 4.189-16.342-10.094-21.767-31.243-21.767-31.243Z"/></svg>